HIERARCHY
ROOT mixamorig:Hips
{
	OFFSET 0.000000 201.639420 0.000000
	CHANNELS 6 Xposition Yposition Zposition Xrotation Yrotation Zrotation
	JOINT mixamorig:Spine
	{
		OFFSET 0.006200 19.524994 -2.481800
		CHANNELS 3 Xrotation Yrotation Zrotation
		JOINT mixamorig:Spine1
		{
			OFFSET -0.000900 22.835007 -2.825400
			CHANNELS 3 Xrotation Yrotation Zrotation
			JOINT mixamorig:Spine2
			{
				OFFSET -0.020600 26.552490 -3.193300
				CHANNELS 3 Xrotation Yrotation Zrotation
				JOINT mixamorig:Neck
				{
					OFFSET -0.060000 30.701813 1.352200
					CHANNELS 3 Xrotation Yrotation Zrotation
					JOINT mixamorig:Head
					{
						OFFSET -0.087200 22.547607 3.670900
						CHANNELS 3 Xrotation Yrotation Zrotation
						JOINT mixamorig:HeadTop_End
						{
							OFFSET -0.830600 40.355194 7.893500
							CHANNELS 3 Xrotation Yrotation Zrotation
							End Site
							{
								OFFSET 0.000000 30.592346 0.000000
							}
						}
						JOINT mixamorig:RightEye
						{
							OFFSET -6.302100 18.118591 16.197100
							CHANNELS 3 Xrotation Yrotation Zrotation
							End Site
							{
								OFFSET 0.000000 30.592346 0.000000
							}
						}
						JOINT mixamorig:LeftEye
						{
							OFFSET 6.741500 18.382690 16.401899
							CHANNELS 3 Xrotation Yrotation Zrotation
							End Site
							{
								OFFSET 0.000000 30.592346 0.000000
							}
						}
					}
				}
				JOINT mixamorig:LeftShoulder
				{
					OFFSET 11.924900 18.230499 1.425400
					CHANNELS 3 Xrotation Yrotation Zrotation
					JOINT mixamorig:LeftArm
					{
						OFFSET 25.435989 -0.697632 -5.229300
						CHANNELS 3 Xrotation Yrotation Zrotation
						JOINT mixamorig:LeftForeArm
						{
							OFFSET 54.684776 0.000000 0.000000
							CHANNELS 3 Xrotation Yrotation Zrotation
							JOINT mixamorig:LeftHand
							{
								OFFSET 55.098175 0.000000 0.000000
								CHANNELS 3 Xrotation Yrotation Zrotation
								JOINT mixamorig:LeftHandMiddle1
								{
									OFFSET 23.369751 0.000000 0.000000
									CHANNELS 3 Xrotation Yrotation Zrotation
									JOINT mixamorig:LeftHandMiddle2
									{
										OFFSET 6.378677 0.000000 0.000000
										CHANNELS 3 Xrotation Yrotation Zrotation
										JOINT mixamorig:LeftHandMiddle3
										{
											OFFSET 6.148331 0.000000 0.000000
											CHANNELS 3 Xrotation Yrotation Zrotation
											JOINT mixamorig:LeftHandMiddle4
											{
												OFFSET 6.582504 0.000000 0.000000
												CHANNELS 3 Xrotation Yrotation Zrotation
												End Site
												{
													OFFSET -1.168900 6.395691 1.028606
												}
											}
										}
									}
								}
								JOINT mixamorig:LeftHandThumb1
								{
									OFFSET 7.235672 -3.848206 5.434273
									CHANNELS 3 Xrotation Yrotation Zrotation
									JOINT mixamorig:LeftHandThumb2
									{
										OFFSET 6.568451 -3.792297 3.792300
										CHANNELS 3 Xrotation Yrotation Zrotation
										JOINT mixamorig:LeftHandThumb3
										{
											OFFSET 6.063080 -3.500519 3.500518
											CHANNELS 3 Xrotation Yrotation Zrotation
											JOINT mixamorig:LeftHandThumb4
											{
												OFFSET 4.793182 -2.767334 2.767349
												CHANNELS 3 Xrotation Yrotation Zrotation
												End Site
												{
													OFFSET 0.101639 6.054260 1.275483
												}
											}
										}
									}
								}
								JOINT mixamorig:LeftHandIndex1
								{
									OFFSET 23.101074 -0.309540 4.992809
									CHANNELS 3 Xrotation Yrotation Zrotation
									JOINT mixamorig:LeftHandIndex2
									{
										OFFSET 6.226883 0.000000 0.000000
										CHANNELS 3 Xrotation Yrotation Zrotation
										JOINT mixamorig:LeftHandIndex3
										{
											OFFSET 6.094330 0.000000 0.000000
											CHANNELS 3 Xrotation Yrotation Zrotation
											JOINT mixamorig:LeftHandIndex4
											{
												OFFSET 5.482605 0.000000 0.000000
												CHANNELS 3 Xrotation Yrotation Zrotation
												End Site
												{
													OFFSET -1.427902 5.233032 0.797164
												}
											}
										}
									}
								}
								JOINT mixamorig:LeftHandRing1
								{
									OFFSET 22.299240 0.021149 -3.964172
									CHANNELS 3 Xrotation Yrotation Zrotation
									JOINT mixamorig:LeftHandRing2
									{
										OFFSET 6.321869 0.000000 0.000000
										CHANNELS 3 Xrotation Yrotation Zrotation
										JOINT mixamorig:LeftHandRing3
										{
											OFFSET 5.899796 0.000000 0.000000
											CHANNELS 3 Xrotation Yrotation Zrotation
											JOINT mixamorig:LeftHandRing4
											{
												OFFSET 6.517899 0.000000 0.000000
												CHANNELS 3 Xrotation Yrotation Zrotation
												End Site
												{
													OFFSET -1.637299 6.232208 0.980890
												}
											}
										}
									}
								}
								JOINT mixamorig:LeftHandPinky1
								{
									OFFSET 20.463791 -0.302338 -8.562233
									CHANNELS 3 Xrotation Yrotation Zrotation
									JOINT mixamorig:LeftHandPinky2
									{
										OFFSET 6.908646 0.000000 0.000000
										CHANNELS 3 Xrotation Yrotation Zrotation
										JOINT mixamorig:LeftHandPinky3
										{
											OFFSET 4.622849 0.000000 0.000000
											CHANNELS 3 Xrotation Yrotation Zrotation
											JOINT mixamorig:LeftHandPinky4
											{
												OFFSET 5.216080 0.000000 0.000000
												CHANNELS 3 Xrotation Yrotation Zrotation
												End Site
												{
													OFFSET -0.606308 5.116241 0.814926
												}
											}
										}
									}
								}
							}
						}
					}
				}
				JOINT mixamorig:RightShoulder
				{
					OFFSET -12.001300 18.284088 1.348900
					CHANNELS 3 Xrotation Yrotation Zrotation
					JOINT mixamorig:RightArm
					{
						OFFSET -25.308500 -0.751312 -5.164599
						CHANNELS 3 Xrotation Yrotation Zrotation
						JOINT mixamorig:RightForeArm
						{
							OFFSET -54.684429 0.000000 0.000000
							CHANNELS 3 Xrotation Yrotation Zrotation
							JOINT mixamorig:RightHand
							{
								OFFSET -55.150291 0.000000 0.000000
								CHANNELS 3 Xrotation Yrotation Zrotation
								JOINT mixamorig:RightHandMiddle1
								{
									OFFSET -23.317566 0.000000 0.000000
									CHANNELS 3 Xrotation Yrotation Zrotation
									JOINT mixamorig:RightHandMiddle2
									{
										OFFSET -6.378403 0.000000 0.000000
										CHANNELS 3 Xrotation Yrotation Zrotation
										JOINT mixamorig:RightHandMiddle3
										{
											OFFSET -6.148193 0.000000 0.000000
											CHANNELS 3 Xrotation Yrotation Zrotation
											JOINT mixamorig:RightHandMiddle4
											{
												OFFSET -6.583389 0.000000 0.000000
												CHANNELS 3 Xrotation Yrotation Zrotation
												End Site
												{
													OFFSET 1.171692 6.395905 1.029786
												}
											}
										}
									}
								}
								JOINT mixamorig:RightHandThumb1
								{
									OFFSET -7.190521 -3.860474 5.435846
									CHANNELS 3 Xrotation Yrotation Zrotation
									JOINT mixamorig:RightHandThumb2
									{
										OFFSET -6.567429 -3.791718 3.791708
										CHANNELS 3 Xrotation Yrotation Zrotation
										JOINT mixamorig:RightHandThumb3
										{
											OFFSET -6.062469 -3.500153 3.500166
											CHANNELS 3 Xrotation Yrotation Zrotation
											JOINT mixamorig:RightHandThumb4
											{
												OFFSET -4.792618 -2.767029 2.767022
												CHANNELS 3 Xrotation Yrotation Zrotation
												End Site
												{
													OFFSET -0.100327 6.053253 1.276754
												}
											}
										}
									}
								}
								JOINT mixamorig:RightHandIndex1
								{
									OFFSET -23.048981 -0.310791 4.992554
									CHANNELS 3 Xrotation Yrotation Zrotation
									JOINT mixamorig:RightHandIndex2
									{
										OFFSET -6.227539 0.000000 0.000000
										CHANNELS 3 Xrotation Yrotation Zrotation
										JOINT mixamorig:RightHandIndex3
										{
											OFFSET -6.095047 0.000000 0.000000
											CHANNELS 3 Xrotation Yrotation Zrotation
											JOINT mixamorig:RightHandIndex4
											{
												OFFSET -5.484772 0.000000 0.000000
												CHANNELS 3 Xrotation Yrotation Zrotation
												End Site
												{
													OFFSET 1.420593 5.237305 0.797056
												}
											}
										}
									}
								}
								JOINT mixamorig:RightHandRing1
								{
									OFFSET -22.246323 0.020569 -3.963762
									CHANNELS 3 Xrotation Yrotation Zrotation
									JOINT mixamorig:RightHandRing2
									{
										OFFSET -6.322128 0.000000 0.000000
										CHANNELS 3 Xrotation Yrotation Zrotation
										JOINT mixamorig:RightHandRing3
										{
											OFFSET -5.900024 0.000000 0.000000
											CHANNELS 3 Xrotation Yrotation Zrotation
											JOINT mixamorig:RightHandRing4
											{
												OFFSET -6.518356 0.000000 0.000000
												CHANNELS 3 Xrotation Yrotation Zrotation
												End Site
												{
													OFFSET 1.636398 6.232697 0.982186
												}
											}
										}
									}
								}
								JOINT mixamorig:RightHandPinky1
								{
									OFFSET -20.411011 -0.303314 -8.561701
									CHANNELS 3 Xrotation Yrotation Zrotation
									JOINT mixamorig:RightHandPinky2
									{
										OFFSET -6.907349 0.000000 0.000000
										CHANNELS 3 Xrotation Yrotation Zrotation
										JOINT mixamorig:RightHandPinky3
										{
											OFFSET -4.623840 0.000000 0.000000
											CHANNELS 3 Xrotation Yrotation Zrotation
											JOINT mixamorig:RightHandPinky4
											{
												OFFSET -5.218353 0.000000 0.000000
												CHANNELS 3 Xrotation Yrotation Zrotation
												End Site
												{
													OFFSET 0.602097 5.118835 0.816273
												}
											}
										}
									}
								}
							}
						}
					}
				}
			}
		}
	}
	JOINT mixamorig:LeftUpLeg
	{
		OFFSET 18.168400 -13.561905 -0.039000
		CHANNELS 3 Xrotation Yrotation Zrotation
		JOINT mixamorig:LeftLeg
		{
			OFFSET 0.577358 -80.825211 -3.695000
			CHANNELS 3 Xrotation Yrotation Zrotation
			JOINT mixamorig:LeftFoot
			{
				OFFSET -0.577356 -83.370262 -6.520700
				CHANNELS 3 Xrotation Yrotation Zrotation
				JOINT mixamorig:LeftToeBase
				{
					OFFSET 0.750401 -20.798306 25.135401
					CHANNELS 3 Xrotation Yrotation Zrotation
					JOINT mixamorig:LeftToe_End
					{
						OFFSET -0.000500 0.001200 19.917799
						CHANNELS 3 Xrotation Yrotation Zrotation
						End Site
						{
							OFFSET 0.000000 19.917805 0.000000
						}
					}
				}
			}
		}
	}
	JOINT mixamorig:RightUpLeg
	{
		OFFSET -18.162500 -13.585098 -0.041000
		CHANNELS 3 Xrotation Yrotation Zrotation
		JOINT mixamorig:RightLeg
		{
			OFFSET -0.595024 -80.945297 -3.631900
			CHANNELS 3 Xrotation Yrotation Zrotation
			JOINT mixamorig:RightFoot
			{
				OFFSET 0.595024 -83.218193 -6.561200
				CHANNELS 3 Xrotation Yrotation Zrotation
				JOINT mixamorig:RightToeBase
				{
					OFFSET -0.753601 -20.807106 25.115000
					CHANNELS 3 Xrotation Yrotation Zrotation
					JOINT mixamorig:RightToe_End
					{
						OFFSET 0.000299 0.001700 19.918200
						CHANNELS 3 Xrotation Yrotation Zrotation
						End Site
						{
							OFFSET 0.000000 19.918203 0.000000
						}
					}
				}
			}
		}
	}
}
MOTION
Frames: 4
Frame Time: 0.033333
2.252980 166.715881 1141.341431 5.948379 -6.776667 1.499839 9.385862 -6.590231 -0.481435 3.444769 -1.941964 0.651697 3.447210 -1.947983 0.636168 -4.557082 6.870913 -6.474102 -1.912781 -8.601710 12.978706 0.000000 0.000001 -0.000000 0.000000 0.000001 -0.000000 0.000000 0.000001 -0.000000 -37.683182 1.738314 5.284093 -14.066210 -32.672616 -42.142779 0.000074 -70.714451 0.000078 -61.670126 6.112599 11.954158 0.253182 4.746316 -4.985608 1.341652 3.732117 -39.534037 0.096247 1.058739 -10.389502 -0.000000 -0.000000 -0.000001 1.567998 0.456395 2.719344 19.473192 -1.474886 7.636928 -4.536171 -9.613116 1.492983 0.000003 -0.000001 -0.000002 0.471632 -0.867774 8.148878 1.074608 3.383343 -35.233049 0.528714 2.434002 -24.506572 0.000000 0.000001 -0.000000 0.507856 4.624145 -19.202457 1.945201 4.359871 -48.072203 1.249880 3.618292 -38.102579 -0.000001 -0.000001 0.000002 2.684329 9.278406 -24.711495 1.576847 3.999475 -43.021760 0.542626 2.464299 -24.832370 -0.000001 0.000000 0.000004 -36.293296 -19.775607 1.183605 -38.195470 63.248959 95.417551 0.000200 85.101623 -0.000309 -46.869281 11.064801 -9.428273 3.074460 -7.060283 48.185629 6.279221 -4.366158 110.403396 0.209676 -1.383091 17.240591 0.000003 -0.000000 0.000001 8.445326 -5.064775 11.035122 21.775644 -18.186494 -18.198307 -0.567004 -49.805640 -32.387838 -0.000001 -0.000003 0.000003 -0.042274 4.383139 1.047733 0.192607 -1.326761 16.517837 0.062639 -0.762053 9.397364 0.000001 -0.000000 0.000002 -3.105537 -2.292615 53.531410 5.355673 -4.604598 98.635520 1.954835 -3.794358 54.501945 0.000004 0.000001 0.000000 -3.668110 -4.079239 69.140127 3.782869 -4.574536 79.167869 2.889378 -4.309300 67.670120 -0.000001 0.000002 0.000001 -31.264931 8.721513 -5.355831 71.718188 6.907863 -3.693815 -39.840849 9.999496 6.458027 -10.644820 0.000000 -0.000000 -0.000000 0.000000 0.000000 -61.542689 6.099017 5.309253 100.012671 -0.444703 -1.123659 -0.500999 -20.232666 3.034310 -9.585730 0.000002 0.000010 0.000001 -0.000000 -0.000000 
1.874001 169.507111 1160.436157 7.219680 -5.883250 -0.423477 9.076319 -7.556687 1.485652 3.273280 -2.253927 0.847127 3.272826 -2.262239 0.829927 -3.808516 6.664283 -6.586753 -1.443281 -10.098488 13.910036 -0.000000 0.000001 -0.000000 -0.000000 0.000001 -0.000000 -0.000000 0.000001 -0.000000 -38.026525 2.641053 6.055415 -13.466772 -34.657951 -43.667889 0.000098 -74.841463 0.000096 -50.997508 5.684940 13.911435 0.329664 5.644727 -4.868336 1.027317 3.315467 -34.423590 0.061158 0.845224 -8.277342 0.000001 0.000001 0.000001 1.567984 0.456395 2.719334 19.473173 -1.474884 7.636935 -4.536179 -9.613107 1.492970 0.000002 -0.000001 0.000000 0.476595 -0.440701 10.198830 0.842933 3.029342 -31.092783 0.498450 2.366604 -23.784419 -0.000003 -0.000000 0.000001 0.424975 4.477708 -14.963483 1.849262 4.272052 -46.797741 1.527549 3.946088 -42.310136 -0.000001 -0.000001 0.000001 2.655499 9.440109 -23.642929 1.103012 3.423120 -35.711456 0.465698 2.290966 -22.978918 0.000001 0.000001 0.000000 -36.292224 -19.798937 1.175198 -34.031062 62.402138 90.866788 -0.000110 84.613189 0.000110 -46.562291 9.127690 -11.392294 3.485554 -7.426865 48.162027 6.299824 -4.358458 110.674220 0.204579 -1.366574 17.028167 -0.000001 0.000000 -0.000000 8.445335 -5.064773 11.035110 21.775639 -18.186480 -18.198291 -0.566996 -49.805644 -32.387852 0.000001 0.000002 0.000002 0.041905 4.322226 0.322453 0.194241 -1.332322 16.588952 0.064318 -0.772243 9.523990 -0.000003 -0.000002 -0.000003 -3.126207 -2.407776 54.485481 5.361647 -4.603696 98.709880 1.949185 -3.790345 54.416670 0.000002 -0.000000 -0.000001 -3.679609 -4.032685 68.828588 3.766586 -4.571403 78.963633 2.872547 -4.302354 67.445727 -0.000002 -0.000001 -0.000001 -22.946955 8.338954 -3.855722 65.692848 6.650327 -2.933707 -37.671379 10.323337 4.448454 -13.685823 0.000004 -0.000001 -0.000000 -0.000001 0.000000 -70.593707 4.960779 7.294892 86.543278 -1.059008 -1.176606 1.884579 -15.016029 5.446800 -10.305235 0.000008 0.000002 0.000001 0.000000 -0.000001 
1.965147 174.381805 1178.709351 8.901318 -6.054924 -1.878386 9.016803 -7.467526 3.224901 3.135086 -2.312220 1.102406 3.132636 -2.322536 1.085133 -2.937232 6.468974 -6.826750 -0.941808 -11.671459 14.414156 -0.000000 -0.000002 -0.000000 -0.000000 -0.000002 -0.000000 -0.000000 -0.000002 -0.000000 -38.246324 2.743608 7.291408 -14.035937 -36.327983 -45.650659 -0.000022 -75.499531 -0.000015 -43.649868 4.036255 14.584843 0.323086 5.566858 -4.877639 1.053019 3.352612 -34.865636 0.063876 0.863684 -8.459437 -0.000001 0.000002 -0.000001 1.567980 0.456387 2.719338 19.473194 -1.474904 7.636903 -4.536175 -9.613098 1.492993 0.000002 0.000003 0.000002 0.477682 -0.477765 10.022099 0.861967 3.060643 -31.451095 0.501032 2.372427 -23.846692 -0.000000 -0.000001 -0.000005 0.363557 4.436394 -11.265712 1.795216 4.220794 -46.067980 1.501375 3.917241 -41.928687 0.000002 -0.000000 0.000002 2.658327 9.426119 -23.735715 0.710963 2.799176 -28.497494 0.472144 2.306026 -23.138956 -0.000002 -0.000000 0.000001 -36.524338 -19.279556 1.116206 -29.091002 59.592779 86.779568 0.000087 84.784368 -0.000097 -44.215725 6.393742 -12.545684 3.822385 -7.715976 48.311895 6.307887 -4.355422 110.780232 0.201612 -1.356775 16.902529 0.000000 -0.000001 0.000001 8.445315 -5.064782 11.035131 21.775637 -18.186489 -18.198300 -0.566974 -49.805623 -32.387814 0.000001 -0.000002 -0.000003 0.188672 4.167286 -1.002347 0.189266 -1.315506 16.373420 0.064472 -0.773077 9.534526 -0.000002 -0.000001 -0.000003 -3.120193 -2.559781 55.578950 5.361475 -4.603725 98.707742 1.950416 -3.791206 54.435160 0.000000 -0.000000 -0.000003 -3.694596 -3.967361 68.390117 3.745507 -4.567267 78.699318 2.863808 -4.298720 67.329143 -0.000001 -0.000000 0.000003 -13.627123 9.622795 -2.090552 54.252626 5.697810 -2.050041 -30.606634 9.840423 1.194377 -19.097513 0.102339 -1.883096 -0.000000 0.000001 -0.000000 -69.119165 2.989638 6.728175 61.592331 -3.089624 -1.705426 -5.701681 -14.543932 13.960882 -7.000286 0.000001 -0.000002 -0.000000 -0.000000 0.000001 
2.446396 179.909119 1197.441650 10.161669 -7.346939 -2.577208 9.111624 -6.599512 4.406426 3.277016 -2.159381 1.321295 3.272170 -2.175957 1.300056 -2.070678 6.293342 -7.087091 -0.328889 -13.078746 14.512765 0.000002 0.000002 -0.000000 0.000002 0.000002 -0.000000 0.000002 0.000002 -0.000000 -38.335106 2.043795 8.766797 -16.899008 -38.456161 -49.012416 0.000029 -72.512177 0.000027 -38.604687 0.232412 14.921569 0.278086 5.038734 -4.940819 1.234956 3.599212 -37.865322 0.083837 0.988660 -9.694776 -0.000000 -0.000000 -0.000003 1.567991 0.456405 2.719326 19.473190 -1.474877 7.636916 -4.536166 -9.613107 1.493000 0.000001 0.000001 0.000001 0.477821 -0.730020 8.823084 0.996265 3.269760 -33.882649 0.518668 2.411889 -24.269137 -0.000003 0.000000 0.000001 0.304847 4.441990 -8.188837 1.763473 4.190047 -45.634949 1.329130 3.716942 -39.341521 0.000001 0.000001 0.000003 2.676141 9.331478 -24.365074 0.431916 2.209608 -22.118021 0.516794 2.407760 -24.224786 -0.000002 0.000000 0.000001 -36.867141 -18.498167 1.028939 -25.705262 55.849962 84.715588 0.000033 85.115010 -0.000031 -40.881022 3.589121 -12.651885 4.161785 -8.009885 48.391002 6.310063 -4.354594 110.808980 0.199953 -1.351358 16.832865 0.000000 0.000001 -0.000002 8.445328 -5.064776 11.035134 21.775615 -18.186487 -18.198322 -0.566971 -49.805630 -32.387818 0.000000 0.000002 -0.000001 0.171177 3.900671 -0.902978 0.173246 -1.259748 15.661089 0.061970 -0.758017 9.347080 -0.000000 -0.000002 -0.000002 -3.115874 -2.710068 56.684430 5.357753 -4.604296 98.661277 1.954567 -3.794171 54.497946 -0.000000 0.000001 0.000000 -3.708053 -3.907272 67.988038 3.727216 -4.563580 78.469475 2.853491 -4.294417 67.191562 -0.000002 0.000001 0.000000 -1.855358 12.373846 -1.879892 37.066590 4.496318 -0.930051 -17.050459 7.665484 -2.469601 -29.829256 0.058216 -0.309265 -0.000000 -0.000000 0.000000 -57.734360 0.896756 6.286028 26.954746 -5.725196 -1.478285 -15.708848 -19.557741 22.642871 -2.852627 0.000007 0.000001 0.000001 0.000001 -0.000002 
